<mxfile host="app.diagrams.net" modified="2023-07-26T03:22:20.404Z" agent="Mozilla/5.0 (Macintosh; Intel Mac OS X 10_15_7) AppleWebKit/537.36 (KHTML, like Gecko) Chrome/114.0.0.0 Safari/537.36" etag="lY8okhNPE6OKfyNl4ABU" version="21.6.5" type="github">
  <diagram name="Page-1" id="44cQeDNxYzvvJhUPbkjp">
    <mxGraphModel dx="1967" dy="1233" grid="1" gridSize="10" guides="1" tooltips="1" connect="1" arrows="1" fold="1" page="1" pageScale="1" pageWidth="1654" pageHeight="1169" math="0" shadow="0">
      <root>
        <mxCell id="0" />
        <mxCell id="1" parent="0" />
        <mxCell id="G0ryE29HPHUXFtw40q0b-1" value="&lt;font style=&quot;font-size: 26px;&quot;&gt;&lt;span style=&quot;font-size: 26px;&quot;&gt;Design Spotify&lt;br style=&quot;font-size: 26px;&quot;&gt;&lt;/span&gt;&lt;br style=&quot;font-size: 26px;&quot;&gt;&lt;font style=&quot;font-size: 26px;&quot;&gt;Data&amp;nbsp;&lt;br style=&quot;font-size: 26px;&quot;&gt;1 bn Sign Ups&lt;br style=&quot;font-size: 26px;&quot;&gt;100 Mn DAU&lt;br style=&quot;font-size: 26px;&quot;&gt;100Mn Songs&lt;br style=&quot;font-size: 26px;&quot;&gt;5 songs per day per User&lt;br style=&quot;font-size: 26px;&quot;&gt;&lt;br style=&quot;font-size: 26px;&quot;&gt;&lt;br style=&quot;font-size: 26px;&quot;&gt;&lt;br style=&quot;font-size: 26px;&quot;&gt;Song &lt;br style=&quot;font-size: 26px;&quot;&gt;Storage 5Mb&lt;br style=&quot;font-size: 26px;&quot;&gt;Meta Data 1000B&lt;br style=&quot;font-size: 26px;&quot;&gt;User Meta 10KB&lt;br style=&quot;font-size: 26px;&quot;&gt;&lt;/font&gt;&lt;br style=&quot;font-size: 26px;&quot;&gt;&lt;br style=&quot;font-size: 26px;&quot;&gt;&lt;font style=&quot;font-size: 26px;&quot;&gt;MATH :&lt;br style=&quot;font-size: 26px;&quot;&gt;&lt;br style=&quot;font-size: 26px;&quot;&gt;&lt;br style=&quot;font-size: 26px;&quot;&gt;QPS&amp;nbsp;&lt;br style=&quot;font-size: 26px;&quot;&gt;5*100 MN /24*60*60&amp;nbsp; (86400)&lt;br style=&quot;font-size: 26px;&quot;&gt;5 *10^8 / 10^5&lt;br style=&quot;font-size: 26px;&quot;&gt;5000 QPS&lt;br style=&quot;font-size: 26px;&quot;&gt;&lt;br style=&quot;font-size: 26px;&quot;&gt;Song&lt;br style=&quot;font-size: 26px;&quot;&gt;Disk Size : 5Mb * 100 Mn = 500TB&lt;br style=&quot;font-size: 26px;&quot;&gt;replication 3X = 1.5 PB&lt;br style=&quot;font-size: 26px;&quot;&gt;&lt;br style=&quot;font-size: 26px;&quot;&gt;User Meta&lt;br style=&quot;font-size: 26px;&quot;&gt;1Bn * 10KB = 10 TB&lt;br style=&quot;font-size: 26px;&quot;&gt;Song Meta&lt;br style=&quot;font-size: 26px;&quot;&gt;1000*100Mn = .1 Tb = 100 GB&lt;br style=&quot;font-size: 26px;&quot;&gt;Meta data ~ 10TB&lt;br style=&quot;font-size: 26px;&quot;&gt;&lt;/font&gt;&lt;br style=&quot;font-size: 26px;&quot;&gt;&lt;/font&gt;" style="text;html=1;align=left;verticalAlign=middle;resizable=0;points=[];autosize=1;fontFamily=Comic Sans MS;fontSize=26;fillColor=#cdeb8b;strokeColor=#36393d;rounded=0;" parent="1" vertex="1">
          <mxGeometry x="40" y="70" width="440" height="1070" as="geometry" />
        </mxCell>
        <mxCell id="G0ryE29HPHUXFtw40q0b-56" style="edgeStyle=orthogonalEdgeStyle;rounded=0;orthogonalLoop=1;jettySize=auto;html=1;entryX=0.5;entryY=0;entryDx=0;entryDy=0;" parent="1" source="G0ryE29HPHUXFtw40q0b-7" target="G0ryE29HPHUXFtw40q0b-13" edge="1">
          <mxGeometry relative="1" as="geometry" />
        </mxCell>
        <mxCell id="G0ryE29HPHUXFtw40q0b-7" value="" style="outlineConnect=0;dashed=0;verticalLabelPosition=bottom;verticalAlign=top;align=center;html=1;shape=mxgraph.aws3.application_load_balancer;fillColor=#F58536;gradientColor=none;rounded=0;" parent="1" vertex="1">
          <mxGeometry x="706" y="1288" width="69" height="72" as="geometry" />
        </mxCell>
        <mxCell id="G0ryE29HPHUXFtw40q0b-28" style="edgeStyle=orthogonalEdgeStyle;rounded=0;orthogonalLoop=1;jettySize=auto;html=1;entryX=0.715;entryY=1;entryDx=0;entryDy=0;entryPerimeter=0;" parent="1" source="G0ryE29HPHUXFtw40q0b-13" target="G0ryE29HPHUXFtw40q0b-27" edge="1">
          <mxGeometry relative="1" as="geometry" />
        </mxCell>
        <mxCell id="G0ryE29HPHUXFtw40q0b-36" style="edgeStyle=orthogonalEdgeStyle;rounded=0;orthogonalLoop=1;jettySize=auto;html=1;exitX=0;exitY=0.5;exitDx=0;exitDy=0;entryX=0.5;entryY=0;entryDx=0;entryDy=0;entryPerimeter=0;" parent="1" source="G0ryE29HPHUXFtw40q0b-13" target="G0ryE29HPHUXFtw40q0b-30" edge="1">
          <mxGeometry relative="1" as="geometry" />
        </mxCell>
        <mxCell id="G0ryE29HPHUXFtw40q0b-41" style="edgeStyle=orthogonalEdgeStyle;rounded=0;orthogonalLoop=1;jettySize=auto;html=1;exitX=0;exitY=0.75;exitDx=0;exitDy=0;" parent="1" source="G0ryE29HPHUXFtw40q0b-13" target="J-Tk5HAowZm_kZfz76lb-35" edge="1">
          <mxGeometry relative="1" as="geometry">
            <mxPoint x="546.8999999999999" y="1796.35" as="targetPoint" />
          </mxGeometry>
        </mxCell>
        <mxCell id="G0ryE29HPHUXFtw40q0b-13" value="" style="rounded=0;whiteSpace=wrap;html=1;fillColor=#ffe6cc;strokeColor=#d79b00;" parent="1" vertex="1">
          <mxGeometry x="670.5" y="1431" width="140" height="170" as="geometry" />
        </mxCell>
        <mxCell id="G0ryE29HPHUXFtw40q0b-14" value="" style="outlineConnect=0;fillColor=#ffe6cc;strokeColor=#d79b00;dashed=0;verticalLabelPosition=bottom;verticalAlign=top;align=center;html=1;fontSize=12;fontStyle=0;aspect=fixed;pointerEvents=1;shape=mxgraph.aws4.traditional_server;rounded=0;" parent="1" vertex="1">
          <mxGeometry x="680.5" y="1477" width="45" height="78" as="geometry" />
        </mxCell>
        <mxCell id="G0ryE29HPHUXFtw40q0b-15" value="" style="outlineConnect=0;fillColor=#ffe6cc;strokeColor=#d79b00;dashed=0;verticalLabelPosition=bottom;verticalAlign=top;align=center;html=1;fontSize=12;fontStyle=0;aspect=fixed;pointerEvents=1;shape=mxgraph.aws4.traditional_server;rounded=0;" parent="1" vertex="1">
          <mxGeometry x="748.5" y="1477" width="45" height="78" as="geometry" />
        </mxCell>
        <mxCell id="G0ryE29HPHUXFtw40q0b-16" value="&lt;font style=&quot;font-size: 18px;&quot;&gt;App Server&lt;/font&gt;" style="text;html=1;align=center;verticalAlign=middle;resizable=0;points=[];autosize=1;strokeColor=#d79b00;fillColor=#ffe6cc;rounded=0;" parent="1" vertex="1">
          <mxGeometry x="680" y="1556" width="110" height="40" as="geometry" />
        </mxCell>
        <mxCell id="J-Tk5HAowZm_kZfz76lb-49" style="edgeStyle=orthogonalEdgeStyle;rounded=0;orthogonalLoop=1;jettySize=auto;html=1;entryX=1.014;entryY=0.376;entryDx=0;entryDy=0;entryPerimeter=0;fillColor=#d5e8d4;strokeColor=#82b366;" edge="1" parent="1" source="G0ryE29HPHUXFtw40q0b-18" target="G0ryE29HPHUXFtw40q0b-71">
          <mxGeometry relative="1" as="geometry" />
        </mxCell>
        <mxCell id="G0ryE29HPHUXFtw40q0b-18" value="&lt;font style=&quot;&quot;&gt;&lt;span style=&quot;font-size: 18px;&quot;&gt;Song DB&lt;br&gt;&lt;/span&gt;&lt;br&gt;&lt;font style=&quot;font-size: 12px;&quot;&gt;(AWS S3/ GC STORAGE)&lt;/font&gt;&lt;br&gt;&lt;/font&gt;" style="shape=datastore;whiteSpace=wrap;html=1;fillColor=#d5e8d4;strokeColor=#82b366;rounded=0;" parent="1" vertex="1">
          <mxGeometry x="1350" y="2110" width="160" height="160" as="geometry" />
        </mxCell>
        <mxCell id="G0ryE29HPHUXFtw40q0b-42" style="edgeStyle=orthogonalEdgeStyle;rounded=0;orthogonalLoop=1;jettySize=auto;html=1;entryX=0;entryY=0.5;entryDx=0;entryDy=0;entryPerimeter=0;" parent="1" source="G0ryE29HPHUXFtw40q0b-19" target="G0ryE29HPHUXFtw40q0b-7" edge="1">
          <mxGeometry relative="1" as="geometry" />
        </mxCell>
        <mxCell id="G0ryE29HPHUXFtw40q0b-58" style="edgeStyle=orthogonalEdgeStyle;rounded=0;orthogonalLoop=1;jettySize=auto;html=1;entryX=0.493;entryY=0.969;entryDx=0;entryDy=0;entryPerimeter=0;" parent="1" source="G0ryE29HPHUXFtw40q0b-19" target="G0ryE29HPHUXFtw40q0b-57" edge="1">
          <mxGeometry relative="1" as="geometry" />
        </mxCell>
        <mxCell id="G0ryE29HPHUXFtw40q0b-19" value="" style="rounded=0;whiteSpace=wrap;html=1;" parent="1" vertex="1">
          <mxGeometry x="346" y="1250" width="175" height="150" as="geometry" />
        </mxCell>
        <mxCell id="G0ryE29HPHUXFtw40q0b-20" value="" style="outlineConnect=0;fontColor=#232F3E;gradientColor=none;fillColor=#232F3D;strokeColor=none;dashed=0;verticalLabelPosition=bottom;verticalAlign=top;align=center;html=1;fontSize=12;fontStyle=0;aspect=fixed;pointerEvents=1;shape=mxgraph.aws4.client;rounded=0;" parent="1" vertex="1">
          <mxGeometry x="361" y="1279" width="78" height="76" as="geometry" />
        </mxCell>
        <mxCell id="G0ryE29HPHUXFtw40q0b-21" value="Mobile client" style="outlineConnect=0;fontColor=#232F3E;gradientColor=none;strokeColor=#232F3E;fillColor=#ffffff;dashed=0;verticalLabelPosition=bottom;verticalAlign=top;align=center;html=1;fontSize=12;fontStyle=0;aspect=fixed;shape=mxgraph.aws4.resourceIcon;resIcon=mxgraph.aws4.mobile_client;rounded=0;" parent="1" vertex="1">
          <mxGeometry x="447.5" y="1276" width="73" height="73" as="geometry" />
        </mxCell>
        <mxCell id="G0ryE29HPHUXFtw40q0b-23" value="&lt;div style=&quot;border-color: var(--border-color);&quot;&gt;&lt;font style=&quot;font-size: 18px;&quot;&gt;SONG META&lt;/font&gt;&lt;/div&gt;&lt;ol style=&quot;border-color: var(--border-color);&quot;&gt;&lt;li style=&quot;border-color: var(--border-color);&quot;&gt;&lt;span style=&quot;border-color: var(--border-color); background-color: initial;&quot;&gt;&lt;font size=&quot;3&quot;&gt;Song Id&lt;/font&gt;&lt;/span&gt;&lt;/li&gt;&lt;li style=&quot;border-color: var(--border-color);&quot;&gt;&lt;span style=&quot;border-color: var(--border-color); background-color: initial;&quot;&gt;&lt;font size=&quot;3&quot;&gt;Song Name&amp;nbsp;&lt;/font&gt;&lt;/span&gt;&lt;/li&gt;&lt;li style=&quot;border-color: var(--border-color);&quot;&gt;&lt;span style=&quot;border-color: var(--border-color); background-color: initial;&quot;&gt;&lt;font size=&quot;3&quot;&gt;Artist Name&amp;nbsp;&lt;/font&gt;&lt;/span&gt;&lt;/li&gt;&lt;li style=&quot;border-color: var(--border-color);&quot;&gt;&lt;span style=&quot;border-color: var(--border-color); background-color: initial;&quot;&gt;&lt;font size=&quot;3&quot;&gt;Movie / Album name&lt;/font&gt;&lt;/span&gt;&lt;/li&gt;&lt;li style=&quot;border-color: var(--border-color);&quot;&gt;&lt;span style=&quot;border-color: var(--border-color); background-color: initial;&quot;&gt;&lt;font size=&quot;3&quot;&gt;lyrics&lt;/font&gt;&lt;/span&gt;&lt;/li&gt;&lt;li style=&quot;border-color: var(--border-color);&quot;&gt;&lt;font size=&quot;3&quot;&gt;Year Of release&lt;/font&gt;&lt;/li&gt;&lt;li style=&quot;border-color: var(--border-color);&quot;&gt;&lt;font size=&quot;3&quot;&gt;Song Url&amp;nbsp;&lt;/font&gt;&lt;/li&gt;&lt;/ol&gt;&lt;div style=&quot;border-color: var(--border-color);&quot;&gt;&lt;font size=&quot;3&quot;&gt;USER META&lt;/font&gt;&lt;/div&gt;&lt;div style=&quot;border-color: var(--border-color);&quot;&gt;&lt;font size=&quot;3&quot;&gt;&lt;span style=&quot;border-color: var(--border-color);&quot;&gt;&lt;span style=&quot;white-space: pre;&quot;&gt;&amp;nbsp;&amp;nbsp;&amp;nbsp;&amp;nbsp;&lt;/span&gt;&lt;/span&gt;1.userId&lt;br style=&quot;border-color: var(--border-color);&quot;&gt;&lt;/font&gt;&lt;/div&gt;&lt;div style=&quot;border-color: var(--border-color);&quot;&gt;&lt;font size=&quot;3&quot;&gt;&lt;span style=&quot;border-color: var(--border-color);&quot;&gt;&lt;span style=&quot;white-space: pre;&quot;&gt;&amp;nbsp;&amp;nbsp;&amp;nbsp;&amp;nbsp;&lt;/span&gt;&lt;/span&gt;2. user Name&lt;/font&gt;&lt;/div&gt;&lt;div style=&quot;border-color: var(--border-color);&quot;&gt;&lt;font size=&quot;3&quot;&gt;&lt;span style=&quot;border-color: var(--border-color);&quot;&gt;&lt;span style=&quot;white-space: pre;&quot;&gt;&amp;nbsp;&amp;nbsp;&amp;nbsp;&amp;nbsp;&lt;/span&gt;&lt;/span&gt;3.User Info&lt;br style=&quot;border-color: var(--border-color);&quot;&gt;&lt;/font&gt;&lt;/div&gt;&lt;div style=&quot;border-color: var(--border-color);&quot;&gt;&lt;font size=&quot;3&quot;&gt;&lt;span style=&quot;border-color: var(--border-color);&quot;&gt;&lt;span style=&quot;white-space: pre;&quot;&gt;&amp;nbsp;&amp;nbsp;&amp;nbsp;&amp;nbsp;&lt;/span&gt;&lt;/span&gt;4.Subscription&amp;nbsp; &amp;nbsp; &amp;nbsp; &amp;nbsp; &amp;nbsp; &amp;nbsp; &amp;nbsp; &amp;nbsp;&lt;span style=&quot;white-space: pre;&quot;&gt;&#x9;&lt;/span&gt;5.Type&amp;nbsp;&lt;br style=&quot;border-color: var(--border-color);&quot;&gt;&lt;/font&gt;&lt;/div&gt;&lt;div style=&quot;border-color: var(--border-color);&quot;&gt;&lt;font size=&quot;3&quot;&gt;&lt;br style=&quot;border-color: var(--border-color);&quot;&gt;&lt;/font&gt;&lt;/div&gt;&lt;div style=&quot;border-color: var(--border-color);&quot;&gt;&lt;br style=&quot;border-color: var(--border-color); color: rgb(0, 0, 0); font-family: Helvetica; font-size: 12px; font-style: normal; font-variant-ligatures: normal; font-variant-caps: normal; font-weight: 400; letter-spacing: normal; orphans: 2; text-align: left; text-indent: 0px; text-transform: none; widows: 2; word-spacing: 0px; -webkit-text-stroke-width: 0px; background-color: rgb(251, 251, 251); text-decoration-thickness: initial; text-decoration-style: initial; text-decoration-color: initial;&quot;&gt;&lt;/div&gt;" style="text;whiteSpace=wrap;html=1;rounded=0;" parent="1" vertex="1">
          <mxGeometry x="160" y="1760" width="227.5" height="429" as="geometry" />
        </mxCell>
        <mxCell id="G0ryE29HPHUXFtw40q0b-24" value="&lt;font style=&quot;font-size: 18px;&quot;&gt;Song MP3&amp;nbsp;&lt;/font&gt;" style="text;html=1;align=center;verticalAlign=middle;resizable=0;points=[];autosize=1;strokeColor=#82b366;fillColor=#d5e8d4;rounded=0;glass=1;shadow=1;" parent="1" vertex="1">
          <mxGeometry x="1230" y="2120" width="110" height="40" as="geometry" />
        </mxCell>
        <mxCell id="G0ryE29HPHUXFtw40q0b-25" value="&lt;font style=&quot;font-size: 18px;&quot;&gt;AWS S3 Glacier&amp;nbsp;&lt;/font&gt;" style="shape=datastore;whiteSpace=wrap;html=1;fillColor=#d5e8d4;strokeColor=#82b366;rounded=0;" parent="1" vertex="1">
          <mxGeometry x="889" y="2110" width="150" height="160" as="geometry" />
        </mxCell>
        <mxCell id="J-Tk5HAowZm_kZfz76lb-47" style="edgeStyle=orthogonalEdgeStyle;rounded=0;orthogonalLoop=1;jettySize=auto;html=1;entryX=1;entryY=0.5;entryDx=0;entryDy=0;" edge="1" parent="1" source="G0ryE29HPHUXFtw40q0b-26" target="G0ryE29HPHUXFtw40q0b-69">
          <mxGeometry relative="1" as="geometry">
            <Array as="points">
              <mxPoint x="1610" y="1290" />
              <mxPoint x="1610" y="2210" />
            </Array>
          </mxGeometry>
        </mxCell>
        <mxCell id="G0ryE29HPHUXFtw40q0b-26" value="" style="image;aspect=fixed;html=1;points=[];align=center;fontSize=12;image=img/lib/azure2/networking/CDN_Profiles.svg;rounded=0;" parent="1" vertex="1">
          <mxGeometry x="1006" y="1250" width="136" height="80" as="geometry" />
        </mxCell>
        <mxCell id="G0ryE29HPHUXFtw40q0b-27" value="&lt;font style=&quot;font-size: 18px;&quot;&gt;CDN&lt;/font&gt;" style="text;html=1;align=center;verticalAlign=middle;resizable=0;points=[];autosize=1;strokeColor=none;fillColor=none;rounded=0;" parent="1" vertex="1">
          <mxGeometry x="1046" y="1330" width="60" height="40" as="geometry" />
        </mxCell>
        <mxCell id="G0ryE29HPHUXFtw40q0b-30" value="" style="outlineConnect=0;dashed=0;verticalLabelPosition=bottom;verticalAlign=top;align=center;html=1;shape=mxgraph.aws3.cache_node;fillColor=#1ba1e2;rounded=0;strokeColor=#006EAF;fontColor=#ffffff;" parent="1" vertex="1">
          <mxGeometry x="352.5" y="1561" width="75" height="80" as="geometry" />
        </mxCell>
        <mxCell id="G0ryE29HPHUXFtw40q0b-32" value="" style="outlineConnect=0;dashed=0;verticalLabelPosition=bottom;verticalAlign=top;align=center;html=1;shape=mxgraph.aws3.cache_node;fillColor=#1ba1e2;rounded=0;strokeColor=#006EAF;fontColor=#ffffff;" parent="1" vertex="1">
          <mxGeometry x="362.5" y="1571" width="75" height="80" as="geometry" />
        </mxCell>
        <mxCell id="G0ryE29HPHUXFtw40q0b-33" value="&lt;font style=&quot;font-size: 18px;&quot;&gt;Meta Data Cache&lt;/font&gt;" style="outlineConnect=0;dashed=0;verticalLabelPosition=bottom;verticalAlign=top;align=center;html=1;shape=mxgraph.aws3.cache_node;fillColor=#1ba1e2;rounded=0;strokeColor=#006EAF;fontColor=#ffffff;" parent="1" vertex="1">
          <mxGeometry x="372.5" y="1581" width="75" height="80" as="geometry" />
        </mxCell>
        <mxCell id="G0ryE29HPHUXFtw40q0b-57" value="" style="image;aspect=fixed;html=1;points=[];align=center;fontSize=12;image=img/lib/mscae/DNS.svg;rounded=0;" parent="1" vertex="1">
          <mxGeometry x="40" y="1276" width="50" height="50" as="geometry" />
        </mxCell>
        <mxCell id="G0ryE29HPHUXFtw40q0b-61" value="DNS" style="text;html=1;align=center;verticalAlign=middle;resizable=0;points=[];autosize=1;strokeColor=none;fillColor=none;rounded=0;" parent="1" vertex="1">
          <mxGeometry x="40" y="1340" width="50" height="30" as="geometry" />
        </mxCell>
        <mxCell id="G0ryE29HPHUXFtw40q0b-62" value="CLIENT" style="text;html=1;align=center;verticalAlign=middle;resizable=0;points=[];autosize=1;strokeColor=none;fillColor=none;rounded=0;" parent="1" vertex="1">
          <mxGeometry x="395" y="1409" width="70" height="30" as="geometry" />
        </mxCell>
        <mxCell id="G0ryE29HPHUXFtw40q0b-63" value="&lt;font style=&quot;font-size: 18px;&quot;&gt;LOAD BALANCER&lt;/font&gt;" style="text;html=1;align=center;verticalAlign=middle;resizable=0;points=[];autosize=1;strokeColor=none;fillColor=none;rounded=0;" parent="1" vertex="1">
          <mxGeometry x="660" y="1239" width="170" height="40" as="geometry" />
        </mxCell>
        <mxCell id="G0ryE29HPHUXFtw40q0b-68" value="&lt;font style=&quot;&quot;&gt;&lt;span style=&quot;font-size: 18px;&quot;&gt;Song DB&lt;br&gt;&lt;/span&gt;&lt;br&gt;&lt;font style=&quot;font-size: 12px;&quot;&gt;(AWS S3/ GC STORAGE)&lt;/font&gt;&lt;br&gt;&lt;/font&gt;" style="shape=datastore;whiteSpace=wrap;html=1;fillColor=#d5e8d4;strokeColor=#82b366;rounded=0;" parent="1" vertex="1">
          <mxGeometry x="1360" y="2120" width="160" height="160" as="geometry" />
        </mxCell>
        <mxCell id="G0ryE29HPHUXFtw40q0b-69" value="&lt;font style=&quot;&quot;&gt;&lt;span style=&quot;font-size: 18px;&quot;&gt;Song DB&lt;br&gt;&lt;/span&gt;&lt;br&gt;&lt;font style=&quot;font-size: 12px;&quot;&gt;(AWS S3/ GC STORAGE)&lt;/font&gt;&lt;br&gt;&lt;/font&gt;" style="shape=datastore;whiteSpace=wrap;html=1;fillColor=#d5e8d4;strokeColor=#82b366;rounded=0;" parent="1" vertex="1">
          <mxGeometry x="1375" y="2130" width="160" height="160" as="geometry" />
        </mxCell>
        <mxCell id="G0ryE29HPHUXFtw40q0b-70" value="&lt;font style=&quot;font-size: 18px;&quot;&gt;AWS S3 Glacier&amp;nbsp;&lt;/font&gt;" style="shape=datastore;whiteSpace=wrap;html=1;fillColor=#d5e8d4;strokeColor=#82b366;rounded=0;" parent="1" vertex="1">
          <mxGeometry x="899" y="2120" width="150" height="160" as="geometry" />
        </mxCell>
        <mxCell id="G0ryE29HPHUXFtw40q0b-71" value="&lt;font style=&quot;font-size: 18px;&quot;&gt;AWS S3 Glacier&amp;nbsp;&lt;/font&gt;" style="shape=datastore;whiteSpace=wrap;html=1;fillColor=#d5e8d4;strokeColor=#82b366;rounded=0;" parent="1" vertex="1">
          <mxGeometry x="909" y="2130" width="150" height="160" as="geometry" />
        </mxCell>
        <mxCell id="G0ryE29HPHUXFtw40q0b-72" value="&lt;span style=&quot;color: rgb(0, 0, 0); font-family: Helvetica; font-style: normal; font-variant-ligatures: normal; font-variant-caps: normal; font-weight: 400; letter-spacing: normal; orphans: 2; text-align: left; text-indent: 0px; text-transform: none; widows: 2; word-spacing: 0px; -webkit-text-stroke-width: 0px; background-color: rgb(251, 251, 251); text-decoration-thickness: initial; text-decoration-style: initial; text-decoration-color: initial; float: none; display: inline !important;&quot;&gt;&lt;font style=&quot;font-size: 72px;&quot;&gt;Design Spotify&lt;/font&gt;&lt;/span&gt;" style="text;whiteSpace=wrap;html=1;rounded=0;" parent="1" vertex="1">
          <mxGeometry x="1106" y="1400" width="480" height="132" as="geometry" />
        </mxCell>
        <mxCell id="G0ryE29HPHUXFtw40q0b-74" value="spotify.com" style="text;html=1;align=center;verticalAlign=middle;resizable=0;points=[];autosize=1;strokeColor=none;fillColor=none;rounded=0;" parent="1" vertex="1">
          <mxGeometry x="180" y="1288" width="80" height="30" as="geometry" />
        </mxCell>
        <mxCell id="G0ryE29HPHUXFtw40q0b-75" value="192.110.203.121" style="text;html=1;align=center;verticalAlign=middle;resizable=0;points=[];autosize=1;strokeColor=none;fillColor=none;rounded=0;" parent="1" vertex="1">
          <mxGeometry x="160" y="1331" width="110" height="30" as="geometry" />
        </mxCell>
        <mxCell id="G0ryE29HPHUXFtw40q0b-95" style="edgeStyle=orthogonalEdgeStyle;rounded=0;orthogonalLoop=1;jettySize=auto;html=1;entryX=0.562;entryY=-0.015;entryDx=0;entryDy=0;entryPerimeter=0;" parent="1" target="G0ryE29HPHUXFtw40q0b-18" edge="1">
          <mxGeometry relative="1" as="geometry">
            <mxPoint x="1440.9999999999995" y="2025" as="sourcePoint" />
          </mxGeometry>
        </mxCell>
        <mxCell id="G0ryE29HPHUXFtw40q0b-89" value="" style="points=[[0.015,0.015,0],[0.985,0.015,0],[0.985,0.985,0],[0.015,0.985,0],[0.25,0,0],[0.5,0,0],[0.75,0,0],[1,0.25,0],[1,0.5,0],[1,0.75,0],[0.75,1,0],[0.5,1,0],[0.25,1,0],[0,0.75,0],[0,0.5,0],[0,0.25,0]];verticalLabelPosition=bottom;html=1;verticalAlign=top;aspect=fixed;align=center;pointerEvents=1;shape=mxgraph.cisco19.rect;prIcon=h323;fillColor=#d5e8d4;strokeColor=#82b366;rounded=0;" parent="1" vertex="1">
          <mxGeometry x="1375" y="2210" width="16" height="12.5" as="geometry" />
        </mxCell>
        <mxCell id="J-Tk5HAowZm_kZfz76lb-4" style="edgeStyle=orthogonalEdgeStyle;rounded=0;orthogonalLoop=1;jettySize=auto;html=1;entryX=0;entryY=0.5;entryDx=0;entryDy=0;entryPerimeter=0;fillColor=#e1d5e7;strokeColor=#9673a6;" edge="1" parent="1" source="J-Tk5HAowZm_kZfz76lb-19" target="J-Tk5HAowZm_kZfz76lb-12">
          <mxGeometry relative="1" as="geometry" />
        </mxCell>
        <mxCell id="J-Tk5HAowZm_kZfz76lb-42" style="edgeStyle=orthogonalEdgeStyle;rounded=0;orthogonalLoop=1;jettySize=auto;html=1;entryX=0;entryY=0.5;entryDx=0;entryDy=0;fillColor=#e1d5e7;strokeColor=#9673a6;" edge="1" parent="1" source="J-Tk5HAowZm_kZfz76lb-5" target="J-Tk5HAowZm_kZfz76lb-19">
          <mxGeometry relative="1" as="geometry" />
        </mxCell>
        <mxCell id="J-Tk5HAowZm_kZfz76lb-5" value="" style="image;aspect=fixed;perimeter=ellipsePerimeter;html=1;align=center;shadow=0;dashed=0;spacingTop=3;image=img/lib/active_directory/server_farm.svg;rounded=0;" vertex="1" parent="1">
          <mxGeometry x="692" y="1754" width="126" height="126" as="geometry" />
        </mxCell>
        <mxCell id="J-Tk5HAowZm_kZfz76lb-6" style="edgeStyle=orthogonalEdgeStyle;rounded=0;orthogonalLoop=1;jettySize=auto;html=1;entryX=0;entryY=0.5;entryDx=0;entryDy=0;entryPerimeter=0;fillColor=#e1d5e7;strokeColor=#9673a6;" edge="1" parent="1" source="J-Tk5HAowZm_kZfz76lb-7" target="J-Tk5HAowZm_kZfz76lb-9">
          <mxGeometry relative="1" as="geometry" />
        </mxCell>
        <mxCell id="J-Tk5HAowZm_kZfz76lb-7" value="" style="image;aspect=fixed;html=1;points=[];align=center;fontSize=12;image=img/lib/mscae/Media_Encoding.svg;fillColor=#e1d5e7;strokeColor=#9673a6;rounded=0;" vertex="1" parent="1">
          <mxGeometry x="1275.6700000000003" y="1787.93" width="50" height="58.14" as="geometry" />
        </mxCell>
        <mxCell id="J-Tk5HAowZm_kZfz76lb-8" style="edgeStyle=orthogonalEdgeStyle;rounded=0;orthogonalLoop=1;jettySize=auto;html=1;entryX=0.5;entryY=0;entryDx=0;entryDy=0;entryPerimeter=0;fillColor=#e1d5e7;strokeColor=#9673a6;" edge="1" parent="1" source="J-Tk5HAowZm_kZfz76lb-9" target="J-Tk5HAowZm_kZfz76lb-10">
          <mxGeometry relative="1" as="geometry" />
        </mxCell>
        <mxCell id="J-Tk5HAowZm_kZfz76lb-9" value="" style="outlineConnect=0;dashed=0;verticalLabelPosition=bottom;verticalAlign=top;align=center;html=1;shape=mxgraph.aws3.elastic_transcoder;fillColor=#e1d5e7;strokeColor=#9673a6;rounded=0;" vertex="1" parent="1">
          <mxGeometry x="1398.67" y="1777" width="82" height="80" as="geometry" />
        </mxCell>
        <mxCell id="J-Tk5HAowZm_kZfz76lb-10" value="" style="outlineConnect=0;dashed=0;verticalLabelPosition=bottom;verticalAlign=top;align=center;html=1;shape=mxgraph.aws3.data_encryption_key;fillColor=#e1d5e7;strokeColor=#9673a6;rounded=0;" vertex="1" parent="1">
          <mxGeometry x="1404.67" y="1958.93" width="70" height="75" as="geometry" />
        </mxCell>
        <mxCell id="J-Tk5HAowZm_kZfz76lb-11" style="edgeStyle=orthogonalEdgeStyle;rounded=0;orthogonalLoop=1;jettySize=auto;html=1;fillColor=#e1d5e7;strokeColor=#9673a6;" edge="1" parent="1" source="J-Tk5HAowZm_kZfz76lb-12" target="J-Tk5HAowZm_kZfz76lb-7">
          <mxGeometry relative="1" as="geometry" />
        </mxCell>
        <mxCell id="J-Tk5HAowZm_kZfz76lb-12" value="" style="aspect=fixed;pointerEvents=1;shadow=0;dashed=0;html=1;strokeColor=#9673a6;labelPosition=center;verticalLabelPosition=bottom;verticalAlign=top;align=center;fillColor=#e1d5e7;shape=mxgraph.azure.queue_generic;rounded=0;" vertex="1" parent="1">
          <mxGeometry x="1059" y="1792" width="166.67" height="50" as="geometry" />
        </mxCell>
        <mxCell id="J-Tk5HAowZm_kZfz76lb-13" value="&lt;font style=&quot;font-size: 18px;&quot;&gt;Block Server&lt;/font&gt;" style="text;html=1;align=center;verticalAlign=middle;resizable=0;points=[];autosize=1;strokeColor=none;fillColor=none;rounded=0;" vertex="1" parent="1">
          <mxGeometry x="779" y="1890" width="130" height="40" as="geometry" />
        </mxCell>
        <mxCell id="J-Tk5HAowZm_kZfz76lb-14" value="&lt;font style=&quot;font-size: 18px;&quot;&gt;Message Queue&lt;/font&gt;" style="text;html=1;align=center;verticalAlign=middle;resizable=0;points=[];autosize=1;strokeColor=none;fillColor=none;rounded=0;" vertex="1" parent="1">
          <mxGeometry x="1039" y="1857" width="160" height="40" as="geometry" />
        </mxCell>
        <mxCell id="J-Tk5HAowZm_kZfz76lb-15" value="&lt;font style=&quot;font-size: 18px;&quot;&gt;Encoders&lt;/font&gt;" style="text;html=1;align=center;verticalAlign=middle;resizable=0;points=[];autosize=1;strokeColor=none;fillColor=none;rounded=0;" vertex="1" parent="1">
          <mxGeometry x="1250" y="1857.07" width="100" height="40" as="geometry" />
        </mxCell>
        <mxCell id="J-Tk5HAowZm_kZfz76lb-16" value="&lt;font style=&quot;font-size: 18px;&quot;&gt;TranseCoders&lt;/font&gt;" style="text;html=1;align=center;verticalAlign=middle;resizable=0;points=[];autosize=1;strokeColor=none;fillColor=none;rounded=0;" vertex="1" parent="1">
          <mxGeometry x="1360" y="1734" width="140" height="40" as="geometry" />
        </mxCell>
        <mxCell id="J-Tk5HAowZm_kZfz76lb-17" value="&lt;font style=&quot;font-size: 18px;&quot;&gt;Encryptors&lt;/font&gt;" style="text;html=1;align=center;verticalAlign=middle;resizable=0;points=[];autosize=1;strokeColor=none;fillColor=none;rounded=0;" vertex="1" parent="1">
          <mxGeometry x="1281" y="1983.9300000000003" width="110" height="40" as="geometry" />
        </mxCell>
        <mxCell id="J-Tk5HAowZm_kZfz76lb-21" value="" style="rounded=0;whiteSpace=wrap;html=1;fillColor=#ffe6cc;strokeColor=#d79b00;" vertex="1" parent="1">
          <mxGeometry x="680.5" y="1441" width="140" height="170" as="geometry" />
        </mxCell>
        <mxCell id="J-Tk5HAowZm_kZfz76lb-22" value="" style="outlineConnect=0;fillColor=#ffe6cc;strokeColor=#d79b00;dashed=0;verticalLabelPosition=bottom;verticalAlign=top;align=center;html=1;fontSize=12;fontStyle=0;aspect=fixed;pointerEvents=1;shape=mxgraph.aws4.traditional_server;rounded=0;" vertex="1" parent="1">
          <mxGeometry x="690.5" y="1487" width="45" height="78" as="geometry" />
        </mxCell>
        <mxCell id="J-Tk5HAowZm_kZfz76lb-23" value="" style="outlineConnect=0;fillColor=#ffe6cc;strokeColor=#d79b00;dashed=0;verticalLabelPosition=bottom;verticalAlign=top;align=center;html=1;fontSize=12;fontStyle=0;aspect=fixed;pointerEvents=1;shape=mxgraph.aws4.traditional_server;rounded=0;" vertex="1" parent="1">
          <mxGeometry x="758.5" y="1487" width="45" height="78" as="geometry" />
        </mxCell>
        <mxCell id="J-Tk5HAowZm_kZfz76lb-24" value="&lt;font style=&quot;font-size: 18px;&quot;&gt;App Server&lt;/font&gt;" style="text;html=1;align=center;verticalAlign=middle;resizable=0;points=[];autosize=1;strokeColor=#d79b00;fillColor=#ffe6cc;rounded=0;" vertex="1" parent="1">
          <mxGeometry x="690" y="1566" width="110" height="40" as="geometry" />
        </mxCell>
        <mxCell id="J-Tk5HAowZm_kZfz76lb-25" value="" style="rounded=0;whiteSpace=wrap;html=1;fillColor=#ffe6cc;strokeColor=#d79b00;" vertex="1" parent="1">
          <mxGeometry x="690.5" y="1451" width="140" height="170" as="geometry" />
        </mxCell>
        <mxCell id="J-Tk5HAowZm_kZfz76lb-26" value="" style="outlineConnect=0;fillColor=#0050ef;strokeColor=#001DBC;dashed=0;verticalLabelPosition=bottom;verticalAlign=top;align=center;html=1;fontSize=12;fontStyle=0;aspect=fixed;pointerEvents=1;shape=mxgraph.aws4.traditional_server;rounded=0;fontColor=#ffffff;" vertex="1" parent="1">
          <mxGeometry x="700.5" y="1497" width="45" height="78" as="geometry" />
        </mxCell>
        <mxCell id="J-Tk5HAowZm_kZfz76lb-27" value="" style="outlineConnect=0;fillColor=#0050ef;strokeColor=#001DBC;dashed=0;verticalLabelPosition=bottom;verticalAlign=top;align=center;html=1;fontSize=12;fontStyle=0;aspect=fixed;pointerEvents=1;shape=mxgraph.aws4.traditional_server;rounded=0;fontColor=#ffffff;" vertex="1" parent="1">
          <mxGeometry x="768.5" y="1497" width="45" height="78" as="geometry" />
        </mxCell>
        <mxCell id="J-Tk5HAowZm_kZfz76lb-40" style="edgeStyle=orthogonalEdgeStyle;rounded=0;orthogonalLoop=1;jettySize=auto;html=1;entryX=0.5;entryY=0;entryDx=0;entryDy=0;" edge="1" parent="1" source="J-Tk5HAowZm_kZfz76lb-28" target="J-Tk5HAowZm_kZfz76lb-5">
          <mxGeometry relative="1" as="geometry" />
        </mxCell>
        <mxCell id="J-Tk5HAowZm_kZfz76lb-28" value="&lt;font style=&quot;font-size: 18px;&quot;&gt;App Server&lt;/font&gt;" style="text;html=1;align=center;verticalAlign=middle;resizable=0;points=[];autosize=1;strokeColor=none;fillColor=none;rounded=0;" vertex="1" parent="1">
          <mxGeometry x="700" y="1621" width="110" height="40" as="geometry" />
        </mxCell>
        <mxCell id="J-Tk5HAowZm_kZfz76lb-32" value="&lt;font style=&quot;font-size: 18px;&quot;&gt;Meta Data Store DB&lt;/font&gt;" style="shape=datastore;whiteSpace=wrap;html=1;fillColor=#dae8fc;strokeColor=#6c8ebf;rounded=0;" vertex="1" parent="1">
          <mxGeometry x="414.5" y="1958.93" width="120" height="90" as="geometry" />
        </mxCell>
        <mxCell id="J-Tk5HAowZm_kZfz76lb-33" value="&lt;font style=&quot;font-size: 18px;&quot;&gt;Meta Data Store DB&lt;/font&gt;" style="shape=datastore;whiteSpace=wrap;html=1;fillColor=#dae8fc;strokeColor=#6c8ebf;rounded=0;" vertex="1" parent="1">
          <mxGeometry x="550.5" y="1958.93" width="120" height="90" as="geometry" />
        </mxCell>
        <mxCell id="J-Tk5HAowZm_kZfz76lb-35" value="&lt;font style=&quot;font-size: 18px;&quot;&gt;Meta Data Store DB&lt;br&gt;(Master)&lt;br&gt;&lt;/font&gt;" style="shape=datastore;whiteSpace=wrap;html=1;fillColor=#dae8fc;strokeColor=#6c8ebf;rounded=0;" vertex="1" parent="1">
          <mxGeometry x="483.5" y="1798.93" width="120" height="117" as="geometry" />
        </mxCell>
        <mxCell id="J-Tk5HAowZm_kZfz76lb-36" value="" style="endArrow=classic;startArrow=classic;html=1;rounded=0;fillColor=#dae8fc;strokeColor=#6c8ebf;" edge="1" parent="1">
          <mxGeometry width="50" height="50" relative="1" as="geometry">
            <mxPoint x="454.5" y="1958.93" as="sourcePoint" />
            <mxPoint x="504.5" y="1908.93" as="targetPoint" />
          </mxGeometry>
        </mxCell>
        <mxCell id="J-Tk5HAowZm_kZfz76lb-37" value="" style="endArrow=classic;startArrow=classic;html=1;rounded=0;fillColor=#dae8fc;strokeColor=#6c8ebf;" edge="1" parent="1">
          <mxGeometry width="50" height="50" relative="1" as="geometry">
            <mxPoint x="614.5" y="1958.93" as="sourcePoint" />
            <mxPoint x="570.5" y="1915.93" as="targetPoint" />
          </mxGeometry>
        </mxCell>
        <mxCell id="J-Tk5HAowZm_kZfz76lb-38" value="&lt;font style=&quot;font-size: 18px;&quot;&gt;&lt;b style=&quot;&quot;&gt;Slave&lt;/b&gt;&lt;/font&gt;" style="text;html=1;align=center;verticalAlign=middle;resizable=0;points=[];autosize=1;strokeColor=none;fillColor=none;rounded=0;" vertex="1" parent="1">
          <mxGeometry x="500.5" y="2043.9299999999998" width="70" height="40" as="geometry" />
        </mxCell>
        <mxCell id="J-Tk5HAowZm_kZfz76lb-19" value="&lt;b&gt;WATCHER&lt;br style=&quot;border-color: var(--border-color);&quot;&gt;CHUNKER&lt;br style=&quot;border-color: var(--border-color);&quot;&gt;INDEXER&lt;br style=&quot;border-color: var(--border-color);&quot;&gt;INTERNAL DB&amp;nbsp;&lt;/b&gt;" style="shape=step;perimeter=stepPerimeter;whiteSpace=wrap;html=1;fixedSize=1;fillColor=#e1d5e7;strokeColor=#9673a6;rounded=0;" vertex="1" parent="1">
          <mxGeometry x="870" y="1777.07" width="120" height="80" as="geometry" />
        </mxCell>
        <mxCell id="J-Tk5HAowZm_kZfz76lb-53" value="&lt;font style=&quot;font-size: 18px;&quot;&gt;Song MP3&amp;nbsp;&lt;/font&gt;" style="text;html=1;align=center;verticalAlign=middle;resizable=0;points=[];autosize=1;strokeColor=#82b366;fillColor=#d5e8d4;rounded=0;glass=1;shadow=1;" vertex="1" parent="1">
          <mxGeometry x="768.5" y="2140" width="110" height="40" as="geometry" />
        </mxCell>
      </root>
    </mxGraphModel>
  </diagram>
</mxfile>
